<svg id="UI" 
  xmlns="http://www.w3.org/2000/svg" viewBox="0 0 24 24">
  <title>assets_android_icons2</title>
  <g>
    <g>
      <path d="M11.414,6.543a1.483,1.483,0,0,0-.462-.314,1.483,1.483,0,0,0-1.15,0A1.487,1.487,0,0,0,9.027,7a1.486,1.486,0,0,0,0,1.151,1.494,1.494,0,0,0,.313.461A1.519,1.519,0,0,0,9.8,8.93a1.483,1.483,0,0,0,1.15,0,1.487,1.487,0,0,0,.775-.775,1.483,1.483,0,0,0,0-1.15A1.492,1.492,0,0,0,11.414,6.543ZM9.6,6.8c-.016.016-.022.039-.038.056.015-.017.022-.04.038-.056Z"/>
      <path d="M23.894,16.485l-5.642-5.634a6.514,6.514,0,0,0,.148-.685,5.823,5.823,0,0,0,.074-.929A6.376,6.376,0,0,0,17.6,5.989a6.554,6.554,0,0,0-2.312-2.312,6.422,6.422,0,0,0-6.5,0A6.554,6.554,0,0,0,6.474,5.989a6.42,6.42,0,0,0,0,6.5A6.567,6.567,0,0,0,8.786,14.8a6.362,6.362,0,0,0,3.249.878,6.281,6.281,0,0,0,2.4-.475v1.581h2.21v2.21h2.21V21.2H24V16.59ZM16.321,11.5l5.852,5.852v2.019H20.684v-2.21h-2.21V14.954h-2.21v-2.21H15l-.1.083a4.39,4.39,0,0,1-1.345.758,4.581,4.581,0,0,1-1.524.264,4.473,4.473,0,0,1-1.791-.363,4.641,4.641,0,0,1-2.459-2.459,4.592,4.592,0,0,1,0-3.581,4.638,4.638,0,0,1,2.458-2.458,4.6,4.6,0,0,1,3.581,0,4.635,4.635,0,0,1,2.459,2.458,4.473,4.473,0,0,1,.363,1.791,3.935,3.935,0,0,1-.111.938,7.56,7.56,0,0,1-.3.944l-.084.219Z"/>
    </g>
    <rect x="5.041" y="16.677" width="2.882" height="1.621"/>
    <path d="M11.342,17.075v3.566H1.621V3.359H6.81a7.948,7.948,0,0,1,1.243-.926,7.74,7.74,0,0,1,1.59-.695H1.44a1.413,1.413,0,0,0-.564.113,1.471,1.471,0,0,0-.763.763A1.408,1.408,0,0,0,0,3.179V20.821a1.411,1.411,0,0,0,.113.565,1.471,1.471,0,0,0,.763.763,1.413,1.413,0,0,0,.564.113H11.522a1.415,1.415,0,0,0,.565-.113,1.467,1.467,0,0,0,.762-.762,1.4,1.4,0,0,0,.114-.566V17.063a7.771,7.771,0,0,1-.928.057C11.8,17.12,11.572,17.094,11.342,17.075Z"/>
  </g>
</svg>