<svg width="24" height="25" viewBox="0 0 24 25" fill="none" xmlns="http://www.w3.org/2000/svg">
<mask id="4b75f3ea-7de3-49fb-ad1d-dbdb2315749f" style="mask-type:alpha" maskUnits="userSpaceOnUse" x="2" y="6" width="20" height="19">
<path d="M21.6632 11.4702C21.6632 9.41084 20.1564 7.65285 18.097 7.35148C17.9966 7.32637 17.9212 7.32636 17.8208 7.30125C13.9281 6.77385 9.98516 6.77385 6.09246 7.30125C5.99201 7.32636 5.89155 7.32637 5.81621 7.35148C3.75685 7.65285 2.25 9.38572 2.25 11.4702C2.27511 15.0364 3.40525 20.4862 9.30707 24.1528C10.9144 25.1574 12.9486 25.1574 14.581 24.1528C20.5331 20.5113 21.6632 15.0615 21.6632 11.4702Z" fill="url(#ff41e286-0e66-49c6-b56d-d4c8837ceefa)"/>
</mask>
<g mask="url(#4b75f3ea-7de3-49fb-ad1d-dbdb2315749f)">
<path d="M14.809 12.1797C14.809 13.7066 13.5711 14.9445 12.0441 14.9445C10.5172 14.9445 9.2793 13.7066 9.2793 12.1797C9.2793 10.6527 10.5172 9.41483 12.0441 9.41483C13.5711 9.41483 14.809 10.6527 14.809 12.1797Z" stroke="#000000"/>
<circle cx="12.0449" cy="22.9787" r="6.02968" stroke="#000000"/>
</g>
<path fill-rule="evenodd" clip-rule="evenodd" d="M11.9881 0.59375C8.14517 0.59375 5.01733 3.45665 4.75101 7.62436L4.80897 7.62807C3.28379 8.2583 2.25 9.7438 2.25 11.4706C2.27511 15.0367 3.40484 20.4863 9.30454 24.1528C10.9113 25.1574 12.9448 25.1574 14.5766 24.1528C20.5265 20.5114 21.6563 15.0618 21.6563 11.4706C21.6563 9.76782 20.6264 8.27109 19.1059 7.63351L19.249 7.62436C18.9825 3.45439 15.8288 0.59375 11.9881 0.59375ZM18.2245 7.37367C17.859 3.8943 15.1946 1.59375 11.9881 1.59375C8.78856 1.59375 6.14786 3.88523 5.77712 7.35772C5.7897 7.35577 5.8023 7.35386 5.81493 7.35202C5.85493 7.33868 5.90201 7.33242 5.95241 7.32573L5.95242 7.32573C5.99692 7.31981 6.044 7.31356 6.09108 7.30179C6.62344 7.22964 7.15673 7.16736 7.69071 7.11495L7.50038 7.07194C7.97538 4.97011 9.77973 3.36347 11.9881 3.36347C14.1964 3.36347 16.0008 4.97011 16.4758 7.07194L16.2642 7.11975C16.7819 7.17115 17.299 7.23183 17.8152 7.30179C17.8654 7.31434 17.9093 7.32062 17.9532 7.3269L17.9532 7.3269C17.9972 7.33318 18.0411 7.33946 18.0913 7.35202C18.136 7.35855 18.1804 7.36577 18.2245 7.37367ZM15.4362 7.04551C14.9761 5.48229 13.6008 4.36347 11.9881 4.36347C10.3773 4.36347 9.00336 5.47958 8.5416 7.03983C10.8365 6.85985 13.1415 6.86174 15.4362 7.04551ZM17.8118 8.31684C17.8377 8.32055 17.8481 8.32224 17.8512 8.32275L17.8971 8.33424L17.9465 8.34147C19.5127 8.57075 20.6563 9.90633 20.6563 11.4706C20.6563 14.8544 19.6046 19.9032 14.0546 23.2999L14.0524 23.3013C12.7395 24.1095 11.1146 24.1051 9.83466 23.3049L9.83238 23.3035C4.32956 19.8836 3.27444 14.8327 3.25 11.4673C3.2516 9.88311 4.39096 8.57113 5.95977 8.34147L6.04731 8.32865L6.08095 8.31744L6.08281 8.31719C6.10249 8.31459 6.13756 8.30995 6.17299 8.30432C6.19996 8.30004 6.2321 8.29446 6.26784 8.28699C10.0416 7.7794 13.8632 7.77933 17.637 8.2868C17.7101 8.30239 17.771 8.31104 17.8053 8.31591L17.8118 8.31684Z" fill="black"/>
<defs>
<linearGradient id="ff41e286-0e66-49c6-b56d-d4c8837ceefa" x1="11.9566" y1="6.9057" x2="11.9566" y2="24.9063" gradientUnits="userSpaceOnUse">
<stop stop-color="#0078D4"/>
<stop offset="1" stop-color="#1A508B"/>
</linearGradient>
</defs>
</svg>
