<svg width="32" height="33" viewBox="0 0 32 33" fill="none" xmlns="http://www.w3.org/2000/svg">
<g id="Passkey on Authenticator" clip-path="url(#clip0_13211_307895)">
<path id="Subtract" fill-rule="evenodd" clip-rule="evenodd" d="M14.0628 3.89062C14.6669 3.63021 15.3128 3.5 16.0003 3.5C16.6878 3.5 17.3388 3.63021 17.9534 3.89062C18.568 4.15104 19.0992 4.51042 19.5471 4.96875C19.9951 5.42708 20.3492 5.95833 20.6096 6.5625C20.8701 7.16667 21.0003 7.8125 21.0003 8.5L24.0003 9V8.5C24.0003 7.39583 23.7867 6.35938 23.3596 5.39062C22.9326 4.42188 22.3596 3.57292 21.6409 2.84375C20.9221 2.11458 20.0784 1.54167 19.1096 1.125C18.1409 0.708333 17.1044 0.5 16.0003 0.5C14.8961 0.5 13.8596 0.713542 12.8909 1.14062C11.9221 1.56771 11.0732 2.14062 10.344 2.85938C9.61486 3.57812 9.04194 4.42188 8.62527 5.39062C8.20861 6.35938 8.00027 7.39583 8.00027 8.5V9L11.0003 8.5C11.0003 7.8125 11.1305 7.16146 11.3909 6.54688C11.6513 5.93229 12.0107 5.40104 12.469 4.95312C12.9274 4.50521 13.4586 4.15104 14.0628 3.89062ZM22.0784 11C20.0784 10.6667 18.0524 10.5 16.0003 10.5C13.969 10.5 11.9846 10.6667 10.0471 11C8.10965 11.3333 6.17736 11.8333 4.25027 12.5C4.22944 12.6458 4.2034 12.8073 4.17215 12.9844C4.1409 13.1615 4.11486 13.3438 4.09402 13.5312C4.07319 13.7188 4.05236 13.901 4.03152 14.0781C4.01069 14.2552 4.00027 14.4115 4.00027 14.5469C3.98986 16.5156 4.27632 18.4115 4.85965 20.2344C5.44298 22.0573 6.25548 23.7552 7.29715 25.3281C8.33882 26.901 9.59923 28.3021 11.0784 29.5312C12.5576 30.7604 14.1982 31.75 16.0003 32.5C17.8128 31.7396 19.4586 30.7448 20.9378 29.5156C22.4169 28.2865 23.6774 26.8854 24.719 25.3125C25.7607 23.7396 26.568 22.0365 27.1409 20.2031C27.7138 18.3698 28.0003 16.4688 28.0003 14.5V12.5C26.0524 11.8333 24.0784 11.3333 22.0784 11ZM19.1481 16.2668C19.1481 18.071 17.6392 19.5336 15.7778 19.5336C13.9164 19.5336 12.4074 18.071 12.4074 16.2668C12.4074 14.4626 13.9164 13 15.7778 13C17.6392 13 19.1481 14.4626 19.1481 16.2668ZM11.6852 20.467C10.7545 20.467 9.99997 21.1983 10 22.1005L10 22.3338C10 23.4508 10.7331 24.3953 11.7742 25.0375C12.821 25.6832 14.2378 26.0673 15.7777 26.0673C17.0863 26.0673 18.3059 25.79 19.2852 25.3104V24.2371V22.777C18.8817 22.5982 18.6665 22.2754 18.5 22C18 21.5 18.0509 20.5439 18.0577 20.467H11.6852ZM18.6799 20.467C18.7997 19.417 19.7181 18.6003 20.8333 18.6003C22.03 18.6003 23 19.5405 23 20.7004C23 21.6518 22.3472 22.4555 21.4521 22.7136V22.8005L22.1618 23.4884C22.2827 23.6056 22.2827 23.7955 22.1618 23.9127L21.4521 24.6006L22.1709 25.2973C22.2881 25.4109 22.2921 25.594 22.1799 25.7124L21.0515 26.903C20.9324 27.0286 20.7292 27.0328 20.6047 26.9121L19.9951 26.3213C19.9371 26.265 19.9045 26.1887 19.9045 26.1091V24.9592L19.9043 23.7603L19.9045 22.5982C19.3871 22.3599 18.9826 21.9286 18.79 21.4004C18.7101 21.1814 18.6665 20.9458 18.6665 20.7004C18.6665 20.6215 18.6712 20.5436 18.6799 20.467ZM21.375 20.1754C21.375 19.8855 21.1325 19.6504 20.8333 19.6504C20.5342 19.6504 20.2917 19.8855 20.2917 20.1754C20.2917 20.4654 20.5342 20.7004 20.8333 20.7004C21.1325 20.7004 21.375 20.4654 21.375 20.1754Z" fill="#323130"/>
</g>
<defs>
<clipPath id="clip0_13211_307895">
<rect width="32" height="32" fill="white" transform="translate(0 0.5)"/>
</clipPath>
</defs>
</svg>
